<?xml version="1.0" encoding="UTF-8" standalone="no"?>
<!-- Created with Inkscape (http://www.inkscape.org/) -->

<svg
   width="250"
   height="45"
   viewBox="0 0 66.14582 11.90625"
   version="1.1"
   id="svg1"
   inkscape:version="1.4.2 (ebf0e940, 2025-05-08)"
   sodipodi:docname="CremonaCadLogo.svg"
   xml:space="preserve"
   xmlns:inkscape="http://www.inkscape.org/namespaces/inkscape"
   xmlns:sodipodi="http://sodipodi.sourceforge.net/DTD/sodipodi-0.dtd"
   xmlns="http://www.w3.org/2000/svg"
   xmlns:svg="http://www.w3.org/2000/svg"><sodipodi:namedview
     id="namedview1"
     pagecolor="#ffffff"
     bordercolor="#000000"
     borderopacity="0.25"
     inkscape:showpageshadow="2"
     inkscape:pageopacity="0.0"
     inkscape:pagecheckerboard="0"
     inkscape:deskcolor="#d1d1d1"
     inkscape:document-units="mm"
     inkscape:zoom="3.5240356"
     inkscape:cx="105.70268"
     inkscape:cy="28.376558"
     inkscape:window-width="1440"
     inkscape:window-height="847"
     inkscape:window-x="0"
     inkscape:window-y="25"
     inkscape:window-maximized="1"
     inkscape:current-layer="layer1" /><defs
     id="defs1"><rect
       x="160.59889"
       y="134.2939"
       width="429.33539"
       height="232.98297"
       id="rect1" /><rect
       x="160.59889"
       y="134.2939"
       width="429.33539"
       height="232.98297"
       id="rect1-4" /><rect
       x="160.59889"
       y="134.2939"
       width="429.33539"
       height="232.98297"
       id="rect2" /><rect
       x="160.59889"
       y="134.2939"
       width="429.33539"
       height="232.98297"
       id="rect3" /></defs><g
     inkscape:label="Layer 1"
     inkscape:groupmode="layer"
     id="layer1"><text
       xml:space="preserve"
       transform="matrix(0.11645611,0,0,0.1093527,-12.870281,-12.387801)"
       id="text1"
       style="font-style:normal;font-variant:normal;font-weight:normal;font-stretch:normal;font-size:74.6667px;font-family:'Plantagenet Cherokee';-inkscape-font-specification:'Plantagenet Cherokee';text-align:start;writing-mode:lr-tb;direction:ltr;white-space:pre;shape-inside:url(#rect1);display:inline;fill:#333333;stroke:none;stroke-width:3.77953"><tspan
         x="160.59961"
         y="196.62294"
         id="tspan2">REMONA </tspan></text><text
       xml:space="preserve"
       transform="matrix(0.11645611,0,0,0.1093527,33.501026,-12.306149)"
       id="text2"
       style="font-style:normal;font-variant:normal;font-weight:normal;font-stretch:normal;font-size:74.6667px;font-family:'Plantagenet Cherokee';-inkscape-font-specification:'Plantagenet Cherokee';text-align:start;writing-mode:lr-tb;direction:ltr;white-space:pre;shape-inside:url(#rect3);display:inline;fill:#333333;stroke:none;stroke-width:3.77953"><tspan
         x="160.59961"
         y="196.62294"
         id="tspan3">AD</tspan></text><text
       xml:space="preserve"
       style="font-style:normal;font-variant:normal;font-weight:normal;font-stretch:normal;font-size:19.7556px;font-family:Luminari;-inkscape-font-specification:Luminari;text-align:start;writing-mode:lr-tb;direction:ltr;text-anchor:start;fill:#333333;stroke-width:1"
       x="10.0229"
       y="15.782327"
       id="text3"><tspan
         sodipodi:role="line"
         id="tspan1"
         style="stroke-width:1"
         x="10.0229"
         y="15.782327"></tspan></text><path
       style="fill:#333333;stroke-width:0.164103"
       d="M 3.8922809,11.314563 C 2.9141583,11.050675 2.0543561,10.208127 1.4153313,8.8873181 1.0674079,8.168192 0.89377696,7.5753435 0.76738835,6.67498 0.68452587,6.0846706 0.68368455,5.7126811 0.76385475,5.107105 1.0315404,3.0847457 2.1089692,1.2498268 3.3813299,0.64940393 4.0504381,0.33365398 4.7383896,0.31032139 5.2499985,0.58602663 5.5446076,0.74479133 5.8235453,1.3160723 5.7578862,1.6262132 5.6394447,2.1856795 5.0312664,2.500891 4.543584,2.2555729 4.4117898,2.1892761 4.2175168,1.997724 4.1489367,1.8664506 4.0746053,1.7241608 4.0685982,1.3132606 4.1386137,1.1596011 4.2762425,0.85753873 3.8970941,0.99146733 3.4969563,1.3862578 2.9133835,1.9620315 2.4914854,2.8844394 2.3101672,3.9809708 2.2380236,4.4172631 2.0217715,4.9952668 2.7224861,5.7092601 2.0051698,6.3806175 2.2141396,6.925389 2.2689169,7.4327812 2.3811435,8.4723409 2.6909773,9.3599488 3.166006,10.002746 c 0.3249532,0.43972 0.7634322,0.816716 0.9499103,0.816716 0.1174327,0 0.1225143,-0.02392 0.036901,-0.173675 -0.034124,-0.0597 -0.062746,-0.223119 -0.063587,-0.36315 C 4.0873803,9.9696203 4.2020559,9.7434813 4.4498458,9.5717623 4.5970944,9.4697195 4.6667742,9.4517639 4.9155223,9.4517639 c 0.258745,0 0.3141532,0.015674 0.4799152,0.1357504 0.2330684,0.168834 0.363885,0.409307 0.363885,0.6689077 0,0.32317 -0.2242823,0.741126 -0.4942178,0.920989 -0.2953217,0.196779 -0.9203342,0.259222 -1.3727984,0.137151 z"
       id="path3"
       sodipodi:nodetypes="csccsscsccssccssccssssscc" /><path
       style="fill:#333333;stroke-width:0.164103"
       d="M 50.426583,11.314563 C 49.44846,11.050675 48.588658,10.208127 47.949633,8.8873174 47.60171,8.1681914 47.428079,7.5753434 47.30169,6.6749794 c -0.08286,-0.590309 -0.0837,-0.962299 -0.0035,-1.567875 0.267685,-2.0223592 1.345114,-3.8572781 2.617475,-4.45770097 0.669108,-0.31574987 1.35706,-0.33908247 1.868669,-0.063377 0.294609,0.1587647 0.573546,0.73004567 0.507887,1.04018657 -0.118441,0.5594663 -0.72662,0.8746778 -1.214302,0.6293597 -0.131794,-0.066297 -0.326067,-0.2578489 -0.394647,-0.3891223 -0.07433,-0.1422898 -0.08034,-0.55319 -0.01032,-0.7068495 0.137629,-0.30206237 -0.24152,-0.16813367 -0.641658,0.2266567 -0.583572,0.5757737 -1.005471,1.4981816 -1.186789,2.5947128 -0.07214,0.436293 -0.288396,1.014296 0.412319,1.72829 -0.717352,0.671357 -0.508382,1.216128 -0.453605,1.72352 0.112226,1.03956 0.42206,1.927168 0.897089,2.5699656 0.324953,0.43972 0.763432,0.816716 0.94991,0.816716 0.117433,0 0.122515,-0.02392 0.0369,-0.173675 -0.03412,-0.0597 -0.06275,-0.223119 -0.06359,-0.36315 -0.0018,-0.3130167 0.112826,-0.5391557 0.360616,-0.7108747 0.147248,-0.102043 0.216928,-0.119999 0.465676,-0.119999 0.258745,0 0.314153,0.01567 0.479915,0.135751 0.233069,0.168834 0.363885,0.409307 0.363885,0.6689077 0,0.32317 -0.224282,0.741126 -0.494217,0.920989 -0.295322,0.196779 -0.920335,0.259222 -1.372799,0.137151 z"
       id="path3-9"
       sodipodi:nodetypes="csccsscsccssccssccssssscc" /></g></svg>
