<?xml version="1.0" encoding="UTF-8" standalone="no"?>
<!-- Created with Inkscape (http://www.inkscape.org/) -->

<svg
   width="250"
   height="45"
   viewBox="0 0 66.14582 11.90625"
   version="1.1"
   id="svg1"
   inkscape:version="1.4.2 (ebf0e940, 2025-05-08)"
   sodipodi:docname="CremonaCadLogo.svg"
   xmlns:inkscape="http://www.inkscape.org/namespaces/inkscape"
   xmlns:sodipodi="http://sodipodi.sourceforge.net/DTD/sodipodi-0.dtd"
   xmlns="http://www.w3.org/2000/svg"
   xmlns:svg="http://www.w3.org/2000/svg">
  <sodipodi:namedview
     id="namedview1"
     pagecolor="#ffffff"
     bordercolor="#000000"
     borderopacity="0.25"
     inkscape:showpageshadow="2"
     inkscape:pageopacity="0.0"
     inkscape:pagecheckerboard="0"
     inkscape:deskcolor="#d1d1d1"
     inkscape:document-units="mm"
     inkscape:zoom="3.5373164"
     inkscape:cx="130.60749"
     inkscape:cy="39.860726"
     inkscape:window-width="1440"
     inkscape:window-height="847"
     inkscape:window-x="0"
     inkscape:window-y="25"
     inkscape:window-maximized="1"
     inkscape:current-layer="layer1" />
  <defs
     id="defs1">
    <rect
       x="160.59889"
       y="134.2939"
       width="429.33539"
       height="232.98297"
       id="rect1" />
    <rect
       x="160.59889"
       y="134.2939"
       width="429.33539"
       height="232.98297"
       id="rect1-4" />
    <rect
       x="160.59889"
       y="134.2939"
       width="429.33539"
       height="232.98297"
       id="rect2" />
    <rect
       x="160.59889"
       y="134.2939"
       width="429.33539"
       height="232.98297"
       id="rect3" />
  </defs>
  <g
     inkscape:label="Layer 1"
     inkscape:groupmode="layer"
     id="layer1">
    <path
       style="fill:#333333;stroke-width:0.161311"
       d="M 3.2491147,11.657929 C 2.6687185,11.547439 1.8909648,11.067474 1.405821,10.520411 1.12576,10.204605 0.65098545,9.48541 0.49809335,9.145374 0.41699642,8.9650193 0.38680549,8.883506 0.27750428,8.5498235 0.20903119,8.3407763 0.10197327,7.6996155 0.03845848,7.1181669 -3.0448355e-4,6.7633603 -0.00967632,6.2325508 0.00994081,5.5043977 0.05452661,3.8491431 0.21893053,3.1526883 0.77894575,2.2466289 1.4008902,1.2403843 2.2786631,0.51989215 3.1560444,0.29547425 3.5236291,0.20145104 4.1521574,0.18229872 4.455199,0.25589649 5.0802949,0.40768009 5.4327953,1.0936069 5.097023,1.5048163 4.9216507,1.7195912 4.6863812,1.8011167 4.2995458,1.781152 3.8288881,1.7568473 3.5921778,1.5724803 3.5593421,1.2045763 3.5346444,0.92775581 3.565923,0.82530803 3.7207912,0.67615492 3.8295109,0.57144032 3.8343317,0.55516665 3.763187,0.5330383 3.4620899,0.43939702 2.3106744,1.3287889 1.900216,1.972059 1.6526191,2.3600893 1.4450802,2.878571 1.3204811,3.4203629 c -0.024303,0.1056659 -0.076435,0.3217927 -0.11584,0.4802859 -0.04166,0.1674996 -0.071243,0.4893044 -0.070675,0.7684644 0.00104,0.5517016 0.049708,0.6770356 0.4045858,1.0437802 0.1158504,0.119728 0.2106389,0.230521 0.2106389,0.2461947 0,0.015697 -0.087485,0.1204189 -0.1944032,0.2327393 -0.340102,0.3572794 -0.4194922,0.5719815 -0.4207917,1.1380112 -0.00104,0.4390532 0.019043,0.5605263 0.1935068,1.1719037 0.2224591,0.7795964 0.2755723,0.9196645 0.4967075,1.3099156 0.21007,0.3707281 0.501761,0.6935511 0.9284526,1.0275441 0.5445253,0.426228 0.7523502,0.553939 0.9014326,0.553939 0.1648616,0 0.168762,-0.05122 0.015182,-0.199121 C 3.5683715,11.09683 3.550754,11.041159 3.550754,10.819528 c 0,-0.30825 0.1065583,-0.46869 0.4043811,-0.608867 0.2692299,-0.126715 0.698392,-0.107151 0.9411423,0.04292 0.2327392,0.143875 0.3138864,0.286744 0.3133568,0.551715 -6.418e-4,0.373147 -0.3424228,0.763898 -0.7477229,0.855128 -0.2118782,0.04769 -0.9572843,0.04617 -1.2127735,-0.0024 z"
       id="path1" />
    <text
       xml:space="preserve"
       transform="matrix(0.12121501,0,0,0.11382132,-13.997419,-12.337433)"
       id="text1"
       style="font-style:normal;font-variant:normal;font-weight:normal;font-stretch:normal;font-size:74.6667px;font-family:'Plantagenet Cherokee';-inkscape-font-specification:'Plantagenet Cherokee';text-align:start;writing-mode:lr-tb;direction:ltr;white-space:pre;shape-inside:url(#rect1);display:inline;fill:#333333;stroke:none;stroke-width:3.77953"><tspan
         x="160.59961"
         y="196.62294"
         id="tspan2">REMONA </tspan></text>
    <path
       style="fill:#333333;stroke-width:0.161311"
       d="M 51.249116,11.657929 C 50.668718,11.547439 49.890965,11.067474 49.405822,10.520411 49.12576,10.204605 48.650985,9.48541 48.498093,9.145374 48.416999,8.9650193 48.38681,8.883506 48.277504,8.5498235 c -0.06847,-0.2090472 -0.17553,-0.850208 -0.239046,-1.4316566 -0.03876,-0.3548066 -0.04814,-0.8856161 -0.02851,-1.6137692 0.04459,-1.6552546 0.208991,-2.3517094 0.769006,-3.2577688 0.621944,-1.0062446 1.499716,-1.72673675 2.377097,-1.95115465 0.367585,-0.0940232 0.996113,-0.11317553 1.299154,-0.0395778 0.625092,0.15178351 0.977592,0.83771035 0.64182,1.24891965 -0.175372,0.214775 -0.410643,0.2963005 -0.797477,0.2763358 -0.470658,-0.024303 -0.707368,-0.2086717 -0.740205,-0.5765757 -0.0247,-0.27682051 0.0066,-0.37926829 0.161449,-0.5284214 0.108729,-0.10471493 0.113537,-0.12098827 0.04239,-0.14311673 -0.301096,-0.0936413 -1.45251,0.79575083 -1.86297,1.43902083 -0.247598,0.3880303 -0.455136,0.906512 -0.579735,1.4483039 -0.0243,0.1056658 -0.07644,0.3217927 -0.11584,0.4802859 -0.04166,0.1674996 -0.07124,0.4893044 -0.07069,0.7684644 10e-4,0.5517016 0.04972,0.6770356 0.404587,1.0437802 0.11585,0.119728 0.210639,0.230521 0.210639,0.2461947 0,0.015698 -0.08749,0.1204189 -0.194402,0.2327393 -0.340103,0.3572794 -0.419493,0.5719814 -0.420793,1.1380112 -10e-4,0.4390532 0.01904,0.5605263 0.193507,1.1719037 0.222458,0.7795964 0.275573,0.9196646 0.496707,1.3099157 0.210071,0.3707281 0.501762,0.6935511 0.928453,1.0275441 0.544525,0.426228 0.75235,0.553939 0.901434,0.553939 0.16486,0 0.168762,-0.05122 0.01518,-0.199121 -0.100907,-0.09719 -0.118522,-0.152861 -0.118522,-0.374492 0,-0.30825 0.106556,-0.46869 0.404381,-0.608867 0.269228,-0.126715 0.698392,-0.107151 0.941142,0.04292 0.232738,0.143875 0.313887,0.286744 0.313357,0.551715 -6.43e-4,0.373147 -0.342423,0.763898 -0.747724,0.855128 -0.211878,0.04769 -0.957284,0.04617 -1.212773,-0.0024 z"
       id="path2" />
    <text
       xml:space="preserve"
       transform="matrix(0.12121501,0,0,0.11382132,33.674781,-12.337433)"
       id="text2"
       style="font-style:normal;font-variant:normal;font-weight:normal;font-stretch:normal;font-size:74.6667px;font-family:'Plantagenet Cherokee';-inkscape-font-specification:'Plantagenet Cherokee';text-align:start;writing-mode:lr-tb;direction:ltr;white-space:pre;shape-inside:url(#rect3);display:inline;fill:#333333;stroke:none;stroke-width:3.77953"><tspan
         x="160.59961"
         y="196.62294"
         id="tspan3">AD</tspan></text>
    <text
       xml:space="preserve"
       style="font-style:normal;font-variant:normal;font-weight:normal;font-stretch:normal;font-size:19.7556px;font-family:Luminari;-inkscape-font-specification:Luminari;text-align:start;writing-mode:lr-tb;direction:ltr;text-anchor:start;fill:#333333;stroke-width:1"
       x="10.0229"
       y="15.782327"
       id="text3"><tspan
         sodipodi:role="line"
         id="tspan1"
         style="stroke-width:1"
         x="10.0229"
         y="15.782327"></tspan></text>
  </g>
</svg>
